<svg width="31" height="32" fill="none" xmlns="http://www.w3.org/2000/svg"><g clip-path="url(#clip0_378_9971)"><path d="M17.6011 24.2319L24.9077 16.6989C25.2839 16.311 25.2839 15.6944 24.9077 15.3065L17.6011 7.77352C17.529 7.67643 17.4374 7.59636 17.3325 7.53872C17.2276 7.48109 17.1119 7.44724 16.9932 7.43947C16.8744 7.4317 16.7554 7.45019 16.6443 7.49368C16.5331 7.53718 16.4323 7.60466 16.3488 7.69157C16.2653 7.77848 16.2009 7.88278 16.1601 7.99742C16.1193 8.11205 16.1029 8.23434 16.1122 8.35601C16.1215 8.47767 16.1561 8.59588 16.2138 8.70262C16.2715 8.80935 16.3509 8.90213 16.4466 8.97468L22.4185 15.1508L6.52938 15.1508C6.3091 15.1508 6.09783 15.2406 5.94207 15.4003C5.7863 15.5601 5.69879 15.7768 5.69879 16.0027C5.69879 16.2286 5.7863 16.4453 5.94207 16.6051C6.09783 16.7648 6.30909 16.8546 6.52938 16.8546L22.4185 16.8546L16.4466 23.0307C16.2913 23.1911 16.2045 23.4083 16.2052 23.6343C16.206 23.8604 16.2943 24.0769 16.4507 24.2361C16.6071 24.3954 16.8188 24.4845 17.0392 24.4837C17.2596 24.4829 17.4707 24.3923 17.626 24.2319L17.6011 24.2319Z" fill="#F60001"/></g><defs><clipPath id="clip0_378_9971"><rect width="30.6667" height="29.9" fill="white" transform="translate(30.5664 0.668945) rotate(90)"/></clipPath></defs></svg>