<svg width="24" height="22" fill="none" xmlns="http://www.w3.org/2000/svg"><path d="M9.90918 11H22.4544" stroke="#2B2D38" stroke-width="1.5" stroke-miterlimit="10" stroke-linecap="round" stroke-linejoin="round"/><path d="M1 11H4.45449" stroke="#2B2D38" stroke-width="1.5" stroke-miterlimit="10" stroke-linecap="round" stroke-linejoin="round"/><path d="M9.90857 11C9.90857 12.5062 8.68754 13.7273 7.18133 13.7273C5.67513 13.7273 4.4541 12.5062 4.4541 11C4.4541 9.49379 5.67513 8.27275 7.18133 8.27275C8.68754 8.27275 9.90857 9.49379 9.90857 11Z" stroke="#2B2D38" stroke-width="1.5" stroke-miterlimit="10" stroke-linecap="round" stroke-linejoin="round"/><path d="M13.5453 3.72729H1" stroke="#2B2D38" stroke-width="1.5" stroke-miterlimit="10" stroke-linecap="round" stroke-linejoin="round"/><path d="M22.4535 3.72729H18.999" stroke="#2B2D38" stroke-width="1.5" stroke-miterlimit="10" stroke-linecap="round" stroke-linejoin="round"/><path d="M13.5449 3.72726C13.5449 5.23348 14.7659 6.45453 16.2722 6.45453C17.7784 6.45453 18.9994 5.23348 18.9994 3.72726C18.9994 2.22103 17.7784 0.999982 16.2722 0.999982C14.7659 0.999982 13.5449 2.22103 13.5449 3.72726Z" stroke="#2B2D38" stroke-width="1.5" stroke-miterlimit="10" stroke-linecap="round" stroke-linejoin="round"/><path d="M13.5453 18.2727H1" stroke="#2B2D38" stroke-width="1.5" stroke-miterlimit="10" stroke-linecap="round" stroke-linejoin="round"/><path d="M22.4535 18.2727H18.999" stroke="#2B2D38" stroke-width="1.5" stroke-miterlimit="10" stroke-linecap="round" stroke-linejoin="round"/><path d="M13.5449 18.2727C13.5449 19.779 14.7659 21 16.2722 21C17.7784 21 18.9994 19.779 18.9994 18.2727C18.9994 16.7665 17.7784 15.5455 16.2722 15.5455C14.7659 15.5455 13.5449 16.7665 13.5449 18.2727Z" stroke="#2B2D38" stroke-width="1.5" stroke-miterlimit="10" stroke-linecap="round" stroke-linejoin="round"/></svg>