<svg width="18" height="19" fill="none" xmlns="http://www.w3.org/2000/svg"><path d="M17.9979 15.2271C17.8773 15.7474 17.5929 16.2147 17.1869 16.5599C16.7337 17.0227 16.1927 17.3896 15.5958 17.6391C14.999 17.8885 14.3584 18.0154 13.7119 18.0123H13.3886C12.0468 17.9421 10.7315 17.6088 9.51718 17.0313C9.22278 16.8926 8.93651 16.763 8.59605 16.6052C7.17287 15.7983 5.8666 14.7992 4.71376 13.636C3.21517 12.225 1.98714 10.55 1.09065 8.69408C0.59711 7.68161 0.264661 6.59775 0.105407 5.48194C-0.117086 4.3192 0.0144561 3.11614 0.48289 2.02955C0.774275 1.53625 1.13092 1.08487 1.54309 0.687758C1.73136 0.481573 1.95902 0.315522 2.21252 0.199486C2.46603 0.0834496 2.74019 0.0198012 3.01871 0.0123291C3.3224 0.0445564 3.61663 0.13734 3.88413 0.285239C4.15163 0.433138 4.38702 0.633174 4.5765 0.873614C5.00094 1.34505 5.49763 1.79836 5.94916 2.27887L6.53074 2.85366C6.8739 3.15556 7.08612 3.58077 7.12044 4.0377C7.12134 4.45837 6.96692 4.86363 6.68697 5.17641C6.51068 5.39574 6.32319 5.60575 6.12526 5.8056L5.9311 6.00959C5.81803 6.11507 5.72979 6.24453 5.67282 6.38856C5.62586 6.52817 5.60961 6.67686 5.62767 6.82373C5.77577 7.22627 6.00786 7.59254 6.30949 7.89716C6.77908 8.53542 7.23062 9.09118 7.73814 9.74847C8.61346 10.7624 9.65119 11.6225 10.8086 12.2933C10.9196 12.384 11.0524 12.4447 11.1951 12.4692C11.3215 12.4883 11.4488 12.4692 11.5635 12.413C11.9152 12.224 12.228 11.9699 12.4856 11.6642C12.8107 11.2616 13.2821 11.0059 13.795 10.9506C14.0412 10.9516 14.2848 11.002 14.5112 11.099C14.7377 11.196 14.9425 11.3376 15.1135 11.5155C15.3242 11.698 15.5238 11.8923 15.7122 12.0984L15.9886 12.3949L16.2748 12.6723C16.4491 12.8482 16.6153 13.0059 16.7806 13.1909C17.0816 13.4508 17.3615 13.7315 17.6204 14.0331C17.885 14.3722 18.0187 14.7965 17.9979 15.2271Z" fill="#A7A7A7"/></svg>