<svg style="display: none;" xmlns="http://www.w3.org/2000/svg" xmlns:xlink="http://www.w3.org/1999/xlink"><symbol viewBox="0 0 15 29" id="icon-arrow-left" xmlns="http://www.w3.org/2000/svg"><path d="M13.46 1.09 2.507 12.542a2 2 0 0 0-.048 2.713l10.54 11.833" stroke-width="2" stroke-linecap="round"/></symbol><symbol viewBox="0 0 31 32" id="icon-arrow-left-2" xmlns="http://www.w3.org/2000/svg"><g clip-path="url(#aa)"><path d="M13.704 7.756 6.33 15.224a1 1 0 0 0-.012 1.393l7.24 7.596a.836.836 0 0 0 .605.34.812.812 0 0 0 .647-.247.855.855 0 0 0 .242-.662.867.867 0 0 0-.329-.621l-5.917-6.229 15.888.14a.82.82 0 0 0 .59-.245.863.863 0 0 0 .248-.6.863.863 0 0 0-.238-.604.82.82 0 0 0-.585-.255l-15.888-.14 6.026-6.123a.864.864 0 0 0 .006-1.205.82.82 0 0 0-1.175-.006h.025Z"/></g><defs><clipPath id="aa"><path transform="rotate(-89.498 16.005 15.333)" d="M0 0h30.667v29.9H0z"/></clipPath></defs></symbol><symbol viewBox="0 0 14 29" id="icon-arrow-right" xmlns="http://www.w3.org/2000/svg"><path d="m1 27.982 10.748-11.643a2 2 0 0 0 0-2.714L1 1.982" stroke-width="2" stroke-linecap="round"/></symbol><symbol viewBox="0 0 31 32" id="icon-arrow-right-2" xmlns="http://www.w3.org/2000/svg"><g clip-path="url(#ca)"><path d="m17.601 24.232 7.307-7.533a1 1 0 0 0 0-1.393L17.6 7.774a.837.837 0 0 0-.608-.335.811.811 0 0 0-.644.253.855.855 0 0 0-.237.664.868.868 0 0 0 .335.619l5.972 6.176H6.529a.82.82 0 0 0-.587.25.863.863 0 0 0 0 1.204.82.82 0 0 0 .587.25h15.89l-5.972 6.176a.864.864 0 0 0 .004 1.205.82.82 0 0 0 .588.248.82.82 0 0 0 .587-.252h-.025Z"/></g><defs><clipPath id="ca"><path transform="rotate(90 14.949 15.618)" d="M0 0h30.667v29.9H0z"/></clipPath></defs></symbol><symbol viewBox="0 0 23 19" id="icon-email" xmlns="http://www.w3.org/2000/svg"><path d="M20.7.012H2.3C1.035.012.012 1.025.012 2.262L0 15.762c0 1.238 1.035 2.25 2.3 2.25h18.4c1.265 0 2.3-1.012 2.3-2.25v-13.5c0-1.237-1.035-2.25-2.3-2.25Zm-.46 4.782-8.13 4.972a1.185 1.185 0 0 1-1.22 0L2.76 4.794a.972.972 0 0 1-.469-.597.936.936 0 0 1 .119-.744.966.966 0 0 1 .631-.43.999.999 0 0 1 .754.15L11.5 7.888l7.705-4.713a.989.989 0 0 1 .754-.15.99.99 0 0 1 .631.429.943.943 0 0 1-.35 1.34Z"/></symbol><symbol viewBox="0 0 18 19" id="icon-phone" xmlns="http://www.w3.org/2000/svg"><path d="M17.998 15.227c-.12.52-.405.988-.811 1.333a4.839 4.839 0 0 1-3.475 1.452h-.323a10.263 10.263 0 0 1-3.872-.98c-.294-.14-.58-.269-.92-.427a17.888 17.888 0 0 1-3.883-2.969A16.86 16.86 0 0 1 1.09 8.694a10.82 10.82 0 0 1-.986-3.212A5.914 5.914 0 0 1 .483 2.03 6.342 6.342 0 0 1 1.543.688 2.078 2.078 0 0 1 3.02.012a2.287 2.287 0 0 1 1.558.862c.424.471.92.924 1.372 1.405l.582.575c.343.302.555.727.59 1.184 0 .42-.154.826-.434 1.138a8.15 8.15 0 0 1-.562.63l-.194.204a1.043 1.043 0 0 0-.258.379.988.988 0 0 0-.045.435c.148.402.38.769.681 1.073.47.638.922 1.194 1.43 1.851a12.018 12.018 0 0 0 3.07 2.545c.11.091.243.152.386.176.127.02.254 0 .368-.056.352-.189.665-.443.923-.749a1.951 1.951 0 0 1 1.309-.713 1.838 1.838 0 0 1 1.319.564c.21.183.41.377.598.583l.277.297.286.277c.174.176.34.334.506.519.3.26.58.54.84.842a1.8 1.8 0 0 1 .377 1.194Z"/></symbol><symbol viewBox="0 0 20 22" id="icon-play" xmlns="http://www.w3.org/2000/svg"><path d="M18.5 8.389c2 1.154 2 4.041 0 5.196L5 21.379C3 22.533.5 21.089.5 18.78V3.194C.5.883 3-.56 5 .595l13.5 7.794Z"/></symbol><symbol viewBox="0 0 18 19" id="icon-question" xmlns="http://www.w3.org/2000/svg"><rect x=".5" y=".512" width="17" height="17" rx="8.5"/><path d="M9 3.012c-.928 0-1.819.367-2.475 1.02A3.467 3.467 0 0 0 5.5 6.49c0 .184.074.361.205.491A.702.702 0 0 0 6.9 6.491c0-1.154.94-2.087 2.1-2.087 1.16 0 2.1.933 2.1 2.087 0 .567-.14.9-.307 1.133-.183.254-.437.444-.79.685l-.08.054c-.313.213-.716.487-1.029.868-.369.45-.594 1.02-.594 1.781v.348a.694.694 0 0 0 .7.696.694.694 0 0 0 .7-.696v-.348c0-.456.125-.712.28-.903.18-.219.422-.384.78-.629l.037-.025c.347-.237.793-.547 1.134-1.021.359-.496.569-1.12.569-1.943 0-.923-.369-1.808-1.025-2.46A3.511 3.511 0 0 0 9 3.012Zm0 12a.878.878 0 0 0 .619-.254.867.867 0 0 0 0-1.23.878.878 0 0 0-1.494.615c0 .23.092.452.256.615a.878.878 0 0 0 .619.254Z"/></symbol></svg>