<svg width="31" height="32" viewBox="0 0 31 32" fill="none" xmlns="http://www.w3.org/2000/svg">
<g clip-path="url(#clip0_378_9971)">
<path d="M13.7036 7.75573L6.3312 15.2243C5.95155 15.6089 5.94615 16.2256 6.31899 16.6168L13.5593 24.2135C13.6305 24.3112 13.7214 24.3921 13.8258 24.4506C13.9301 24.5092 14.0456 24.544 14.1642 24.5528C14.2829 24.5616 14.4021 24.5442 14.5136 24.5017C14.6252 24.4592 14.7265 24.3926 14.8108 24.3064C14.8951 24.2202 14.9604 24.1165 15.0022 24.0022C15.044 23.8879 15.0614 23.7658 15.0532 23.6441C15.045 23.5223 15.0114 23.4038 14.9546 23.2966C14.8979 23.1893 14.8193 23.0959 14.7243 23.0225L8.80674 16.7942L24.6952 16.9335C24.9155 16.9354 25.1275 16.8475 25.2847 16.6892C25.4419 16.5308 25.5313 16.3149 25.5332 16.0889C25.5352 15.863 25.4496 15.6456 25.2953 15.4845C25.1409 15.3233 24.9304 15.2317 24.7102 15.2298L8.82167 15.0905L14.8475 8.96696C15.0042 8.80791 15.0929 8.59156 15.0941 8.36551C15.0953 8.13945 15.0089 7.9222 14.8539 7.76155C14.6989 7.60091 14.488 7.51002 14.2676 7.50888C14.0472 7.50775 13.8353 7.59646 13.6786 7.75551L13.7036 7.75573Z" fill="#F60001"/>
</g>
<defs>
<clipPath id="clip0_378_9971">
<rect width="30.6667" height="29.9" fill="white" transform="translate(0.532227 31.2039) rotate(-89.4977)"/>
</clipPath>
</defs>
</svg>
