<svg width="22" height="22" viewBox="0 0 22 22" fill="none" xmlns="http://www.w3.org/2000/svg">
<path d="M15.4727 0.801758C15.8991 0.786165 16.2352 1.16742 16.2354 1.55859V2.93164H18.2041L18.5 2.94629C19.1858 3.01449 19.8307 3.31684 20.3223 3.80762C20.884 4.36856 21.2001 5.12957 21.2002 5.92285V18.208C21.2002 19.8588 19.856 21.2 18.2031 21.2002H3.79688C2.14515 21.2 0.799805 19.8588 0.799805 18.208V5.92285L0.81543 5.62695C0.884354 4.94257 1.1873 4.29917 1.67871 3.80859L1.89844 3.60938C2.43146 3.17333 3.1018 2.93249 3.79688 2.93164H5.76562V1.55469L5.7832 1.4082C5.8142 1.26429 5.88553 1.13087 5.99121 1.02539L6.10547 0.931641C6.2264 0.850274 6.36893 0.805498 6.5166 0.801758V0.800781C6.51789 0.800725 6.51922 0.801807 6.52051 0.801758L6.52148 0.800781V0.801758C6.94798 0.786087 7.28403 1.16738 7.28418 1.55859V2.93164H14.7168V1.55469L14.7334 1.4082C14.7644 1.26423 14.8367 1.13091 14.9424 1.02539L15.0566 0.931641C15.1773 0.850467 15.3195 0.805652 15.4668 0.801758V0.800781C15.4683 0.800716 15.4702 0.801814 15.4717 0.801758L15.4727 0.800781V0.801758ZM2.31934 18.208C2.31934 19.0207 2.98181 19.6834 3.79688 19.6836H18.2041L18.3496 19.6758C18.688 19.6421 19.0066 19.4931 19.249 19.251C19.526 18.9743 19.6807 18.5989 19.6807 18.208V9.00879H2.31934V18.208ZM3.79688 4.44824C2.98196 4.44842 2.31957 5.11038 2.31934 5.92285V7.49219H19.6807V5.92285C19.6804 5.11038 19.018 4.44842 18.2031 4.44824H16.2354V4.90918C16.2354 5.28834 15.964 5.57097 15.6309 5.64746L15.4854 5.66699C15.0563 5.68603 14.7168 5.30209 14.7168 4.90918V4.44824H7.28418V4.90918C7.28418 5.28838 7.01289 5.57101 6.67969 5.64746L6.53418 5.66699C6.10509 5.68603 5.76562 5.30209 5.76562 4.90918V4.44824H3.79688Z" fill="#FF9100" stroke="#FF9100" stroke-width="0.4"/>
</svg>
