<svg width="23" height="19" viewBox="0 0 23 19" fill="none" xmlns="http://www.w3.org/2000/svg">
<path d="M20.7 0.0123291H2.3C1.035 0.0123291 0.0115 1.02483 0.0115 2.26233L0 15.7623C0 16.9998 1.035 18.0123 2.3 18.0123H20.7C21.965 18.0123 23 16.9998 23 15.7623V2.26233C23 1.02483 21.965 0.0123291 20.7 0.0123291ZM20.24 4.79358L12.1095 9.76608C11.7415 9.99108 11.2585 9.99108 10.8905 9.76608L2.76 4.79358C2.64469 4.73025 2.54371 4.6447 2.46317 4.54209C2.38264 4.43948 2.32422 4.32195 2.29146 4.19662C2.2587 4.07129 2.25228 3.94076 2.27258 3.81292C2.29288 3.68509 2.33949 3.56262 2.40957 3.45292C2.47966 3.34322 2.57177 3.24857 2.68034 3.1747C2.7889 3.10083 2.91165 3.04928 3.04117 3.02316C3.17069 2.99705 3.30428 2.99692 3.43385 3.02277C3.56342 3.04862 3.68628 3.09993 3.795 3.17358L11.5 7.88733L19.205 3.17358C19.3137 3.09993 19.4366 3.04862 19.5662 3.02277C19.6957 2.99692 19.8293 2.99705 19.9588 3.02316C20.0883 3.04928 20.2111 3.10083 20.3197 3.1747C20.4282 3.24857 20.5203 3.34322 20.5904 3.45292C20.6605 3.56262 20.7071 3.68509 20.7274 3.81292C20.7477 3.94076 20.7413 4.07129 20.7085 4.19662C20.6758 4.32195 20.6174 4.43948 20.5368 4.54209C20.4563 4.6447 20.3553 4.73025 20.24 4.79358Z" fill="#A7A7A7"/>
</svg>
