<svg width="18" height="19" viewBox="0 0 18 19" fill="none" xmlns="http://www.w3.org/2000/svg">
<rect x="0.5" y="0.512329" width="17" height="17" rx="8.5" stroke="#A7A7A7"/>
<path d="M9 3.01233C8.07174 3.01233 7.1815 3.37879 6.52513 4.03109C5.86875 4.68339 5.5 5.5681 5.5 6.49059C5.5 6.67509 5.57375 6.85203 5.70503 6.98249C5.8363 7.11295 6.01435 7.18624 6.2 7.18624C6.38565 7.18624 6.5637 7.11295 6.69497 6.98249C6.82625 6.85203 6.9 6.67509 6.9 6.49059C6.9 5.3372 7.8394 4.40363 9 4.40363C10.1606 4.40363 11.1 5.3372 11.1 6.49059C11.1 7.05824 10.9607 7.39076 10.7934 7.62381C10.61 7.87772 10.3559 8.06763 10.0038 8.30903L9.9226 8.36329C9.6097 8.57616 9.2065 8.84955 8.8943 9.23076C8.5254 9.68155 8.3 10.2513 8.3 11.0123V11.3602C8.3 11.5447 8.37375 11.7216 8.50503 11.8521C8.6363 11.9825 8.81435 12.0558 9 12.0558C9.18565 12.0558 9.3637 11.9825 9.49497 11.8521C9.62625 11.7216 9.7 11.5447 9.7 11.3602V11.0123C9.7 10.556 9.8246 10.3 9.98 10.1087C10.1599 9.89024 10.4021 9.72468 10.7598 9.4805L10.7969 9.45476C11.1441 9.21824 11.59 8.90798 11.9309 8.43355C12.29 7.93824 12.5 7.31355 12.5 6.49059C12.5 5.5681 12.1313 4.68339 11.4749 4.03109C10.8185 3.37879 9.92826 3.01233 9 3.01233ZM9 15.0123C9.23206 15.0123 9.45462 14.9207 9.61872 14.7576C9.78281 14.5946 9.875 14.3734 9.875 14.1428C9.875 13.9121 9.78281 13.691 9.61872 13.5279C9.45462 13.3648 9.23206 13.2732 9 13.2732C8.76794 13.2732 8.54538 13.3648 8.38128 13.5279C8.21719 13.691 8.125 13.9121 8.125 14.1428C8.125 14.3734 8.21719 14.5946 8.38128 14.7576C8.54538 14.9207 8.76794 15.0123 9 15.0123Z" fill="#A7A7A7"/>
</svg>
